<?xml version="1.0" encoding="UTF-8"?>
<svg version="1.1" xmlns="http://www.w3.org/2000/svg" width="274" height="286">
<path d="M0 0 C90.42 0 180.84 0 274 0 C274 94.38 274 188.76 274 286 C183.58 286 93.16 286 0 286 C0 191.62 0 97.24 0 0 Z " fill="#080907" transform="translate(0,0)"/>
<path d="M0 0 C56.76 0 113.52 0 172 0 C172 6.6 172 13.2 172 20 C161.11 20 150.22 20 139 20 C139 50.69 139 81.38 139 113 C131.74 113 124.48 113 117 113 C117 82.31 117 51.62 117 20 C96.54 20 76.08 20 55 20 C55 50.69 55 81.38 55 113 C47.74 113 40.48 113 33 113 C33 82.31 33 51.62 33 20 C22.11 20 11.22 20 0 20 C0 13.4 0 6.8 0 0 Z " fill="#C7FC06" transform="translate(53,82)"/>
<path d="M0 0 C20.46 0 40.92 0 62 0 C62 0.33 62 0.66 62 1 C61.30953079 1.01030746 60.61906158 1.02061493 59.90766907 1.03123474 C52.72131094 1.13941441 45.53507528 1.25400321 38.34887695 1.37231445 C35.66693958 1.41614094 32.98498128 1.45769628 30.30297852 1.49731445 C26.44799693 1.55510707 22.59315033 1.61877607 18.73828125 1.68359375 C17.53915604 1.70030624 16.34003082 1.71701874 15.10456848 1.73423767 C13.98378403 1.75418289 12.86299957 1.77412811 11.70825195 1.79467773 C10.72452103 1.81022202 9.7407901 1.8257663 8.72724915 1.84178162 C6.06386268 1.99629508 3.59835369 2.40938182 1 3 C1.01474869 4.13783432 1.02949738 5.27566864 1.04469299 6.44798279 C1.18270877 17.14624962 1.31544998 27.84457048 1.4429636 38.5429678 C1.50869826 44.04373819 1.57632213 49.54447211 1.64819336 55.04516602 C1.71742302 60.34891733 1.7817819 65.65270701 1.84269524 70.95656013 C1.86685926 72.98487576 1.89280902 75.01317089 1.92053413 77.04144096 C1.95892633 79.87191432 1.99109412 82.70239258 2.02172852 85.53295898 C2.03467453 86.38028091 2.04762054 87.22760284 2.06095886 88.1006012 C2.07900573 90.06708964 2.04525569 92.03394954 2 94 C-0.61885545 96.61885545 -7.33565943 95.93304413 -10.875 96.25 C-11.99003906 96.36601562 -13.10507813 96.48203125 -14.25390625 96.6015625 C-15.32253906 96.69695312 -16.39117187 96.79234375 -17.4921875 96.890625 C-18.47558105 96.98375977 -19.45897461 97.07689453 -20.47216797 97.17285156 C-23 97 -23 97 -24.84423828 95.63183594 C-26 94 -26 94 -26 92 C-26.66 91.67 -27.32 91.34 -28 91 C-27.505 90.505 -27.505 90.505 -27 90 C-26.91021506 87.40409292 -26.88505137 84.83499474 -26.90234375 82.23901367 C-26.90380402 81.42599289 -26.90526428 80.61297211 -26.9067688 79.77531433 C-26.91058454 78.00356125 -26.91671123 76.23181203 -26.92483521 74.46007347 C-26.93754941 71.65707514 -26.94410207 68.85412389 -26.94897461 66.05110168 C-26.96237944 59.08590275 -26.98653946 52.12074824 -27.01037598 45.15557861 C-27.03009307 39.27834133 -27.04574269 33.40112077 -27.05593872 27.52385902 C-27.06242884 24.76076402 -27.0749398 21.99773732 -27.08764648 19.23466492 C-27.09127945 17.53950053 -27.09463112 15.8443355 -27.09765625 14.14916992 C-27.10282257 13.37966003 -27.10798889 12.61015015 -27.11331177 11.81732178 C-27.11365018 8.40491093 -27.08029435 5.26054115 -26 2 C-24.68 1.67 -23.36 1.34 -22 1 C-22 31.36 -22 61.72 -22 93 C-14.74 93 -7.48 93 0 93 C0 62.31 0 31.62 0 0 Z " fill="#060C04" transform="translate(108,102)"/>
<path d="M0 0 C10.89 0 21.78 0 33 0 C33 0.33 33 0.66 33 1 C22.44 1 11.88 1 1 1 C1.00785522 5.26345337 1.00785522 5.26345337 1.01586914 9.61303711 C1.03240365 18.98082832 1.04347066 28.34862016 1.05181217 37.71642208 C1.05704139 43.39876512 1.06413973 49.08109327 1.07543945 54.76342773 C1.08626696 60.24229136 1.09227654 65.72114062 1.09487724 71.20001411 C1.09673174 73.29529611 1.10035282 75.39057728 1.10573006 77.4858532 C1.11293868 80.40977584 1.11399102 83.33363833 1.11352539 86.25756836 C1.11712067 87.1329425 1.12071594 88.00831665 1.12442017 88.91021729 C1.11405216 94.88594784 1.11405216 94.88594784 0 96 C-3.45038505 96.27887021 -6.91468039 96.23178779 -10.375 96.25 C-11.34695312 96.270625 -12.31890625 96.29125 -13.3203125 96.3125 C-14.25359375 96.31765625 -15.186875 96.3228125 -16.1484375 96.328125 C-17.00614746 96.3374707 -17.86385742 96.34681641 -18.74755859 96.35644531 C-21.53599476 95.91517967 -22.25018619 95.17102641 -24 93 C-24.25142959 90.08725565 -24.32007463 87.39784862 -24.2487793 84.48950195 C-24.23946381 83.62099609 -24.23014832 82.75249023 -24.22055054 81.85766602 C-24.18614857 78.98414322 -24.13025995 76.11145682 -24.07421875 73.23828125 C-24.04618942 71.24718511 -24.01949861 69.25606972 -23.99409485 67.26493835 C-23.92359744 62.02201916 -23.83488549 56.77955916 -23.74243164 51.5369873 C-23.65131138 46.18822785 -23.57734506 40.83923456 -23.50195312 35.49023438 C-23.35146365 24.99318861 -23.18173879 14.49654797 -23 4 C-22.67 4 -22.34 4 -22 4 C-22 33.37 -22 62.74 -22 93 C-14.74 93 -7.48 93 0 93 C0 62.31 0 31.62 0 0 Z " fill="#1C2C00" transform="translate(192,102)"/>
<path d="M0 0 C20.46 0 40.92 0 62 0 C62 0.33 62 0.66 62 1 C61.30953079 1.01030746 60.61906158 1.02061493 59.90766907 1.03123474 C52.72131094 1.13941441 45.53507528 1.25400321 38.34887695 1.37231445 C35.66693958 1.41614094 32.98498128 1.45769628 30.30297852 1.49731445 C26.44799693 1.55510707 22.59315033 1.61877607 18.73828125 1.68359375 C17.53915604 1.70030624 16.34003082 1.71701874 15.10456848 1.73423767 C13.98378403 1.75418289 12.86299957 1.77412811 11.70825195 1.79467773 C10.72452103 1.81022202 9.7407901 1.8257663 8.72724915 1.84178162 C6.06386268 1.99629508 3.59835369 2.40938182 1 3 C1.01474869 4.13783432 1.02949738 5.27566864 1.04469299 6.44798279 C1.18270877 17.14624962 1.31544998 27.84457048 1.4429636 38.5429678 C1.50869826 44.04373819 1.57632213 49.54447211 1.64819336 55.04516602 C1.71742302 60.34891733 1.7817819 65.65270701 1.84269524 70.95656013 C1.86685926 72.98487576 1.89280902 75.01317089 1.92053413 77.04144096 C1.95892633 79.87191432 1.99109412 82.70239258 2.02172852 85.53295898 C2.03467453 86.38028091 2.04762054 87.22760284 2.06095886 88.1006012 C2.07900573 90.06708964 2.04525569 92.03394954 2 94 C1 95 1 95 -1.13305664 95.11352539 C-2.04949951 95.10828857 -2.96594238 95.10305176 -3.91015625 95.09765625 C-4.89951172 95.09443359 -5.88886719 95.09121094 -6.90820312 95.08789062 C-7.94912109 95.07951172 -8.99003906 95.07113281 -10.0625 95.0625 C-11.10728516 95.05798828 -12.15207031 95.05347656 -13.22851562 95.04882812 C-15.8190666 95.03699913 -18.40950559 95.02051689 -21 95 C-21.33 94.34 -21.66 93.68 -22 93 C-14.74 93 -7.48 93 0 93 C0 62.31 0 31.62 0 0 Z " fill="#182B00" transform="translate(108,102)"/>
<path d="M0 0 C0.33 0 0.66 0 1 0 C2.06010726 8.48085812 2.176774 16.90910674 2.22979546 25.44145203 C2.2463833 28.01364876 2.26961719 30.58570968 2.29469299 33.15783691 C2.3650453 40.46290219 2.42590471 47.76801545 2.47680664 55.07324219 C2.50852194 59.55874251 2.54975034 64.04407192 2.59700203 68.5294342 C2.61303421 70.23589535 2.62535015 71.94239554 2.63390923 73.64891052 C2.64600876 76.02328028 2.67012644 78.39724289 2.69702148 80.77148438 C2.6979052 81.83116928 2.6979052 81.83116928 2.69880676 82.91226196 C2.65663452 86.90108395 2.65663452 86.90108395 5 90 C7.73434962 90.3063859 10.38279821 90.5113336 13.125 90.625 C13.87910156 90.66367188 14.63320312 90.70234375 15.41015625 90.7421875 C17.27303184 90.83651031 19.13648255 90.91934662 21 91 C21 91.33 21 91.66 21 92 C20.15236084 91.99214478 20.15236084 91.99214478 19.28759766 91.98413086 C16.7334097 91.96337578 14.17923947 91.9503446 11.625 91.9375 C10.73554688 91.92912109 9.84609375 91.92074219 8.9296875 91.91210938 C8.07890625 91.90888672 7.228125 91.90566406 6.3515625 91.90234375 C5.56604004 91.89710693 4.78051758 91.89187012 3.97119141 91.88647461 C1.92227332 91.87426047 1.92227332 91.87426047 0 93 C0 62.31 0 31.62 0 0 Z " fill="#B7DF16" transform="translate(170,102)"/>
<path d="M0 0 C1.57691674 0.01496412 3.15378467 0.03564585 4.73057556 0.06056213 C6.01826591 0.07497345 6.01826591 0.07497345 7.33197021 0.0896759 C10.18358756 0.12278803 13.03505747 0.1630735 15.88658142 0.2033844 C17.85812858 0.2276736 19.82968128 0.25151774 21.80123901 0.27493286 C27.00123879 0.3378933 32.20114119 0.40692584 37.40104675 0.47718811 C42.70282033 0.54776383 48.00466317 0.6126451 53.3065033 0.67799377 C63.71738671 0.80716017 74.12817619 0.94273612 84.53892517 1.08229065 C84.53892517 1.41229065 84.53892517 1.74229065 84.53892517 2.08229065 C55.49892517 2.08229065 26.45892517 2.08229065 -3.46107483 2.08229065 C-3.46107483 8.68229065 -3.46107483 15.28229065 -3.46107483 22.08229065 C-5.68699433 19.85637115 -5.95692412 19.1071949 -6.46107483 16.08229065 C-6.46107483 14.08229065 -6.46107483 12.08229065 -6.46107483 10.08229065 C-6.79107483 9.42229065 -7.12107483 8.76229065 -7.46107483 8.08229065 C-4.38180481 0.10418196 -4.38180481 0.10418196 0 0 Z " fill="#051300" transform="translate(56.46107482910156,79.91770935058594)"/>
<path d="M0 0 C1.32 0 2.64 0 4 0 C4 0.66 4 1.32 4 2 C3.34 2 2.68 2 2 2 C1.67 7.28 1.34 12.56 1 18 C2.32 18 3.64 18 5 18 C5.33 16.35 5.66 14.7 6 13 C6.66 13 7.32 13 8 13 C8 13.66 8 14.32 8 15 C13.94 15 19.88 15 26 15 C26 15.66 26 16.32 26 17 C27.65 17 29.3 17 31 17 C31 17.66 31 18.32 31 19 C20.77 19 10.54 19 0 19 C0 12.73 0 6.46 0 0 Z " fill="#C9FA16" transform="translate(54,83)"/>
<path d="M0 0 C10.89 0 21.78 0 33 0 C29.48867602 3.51132398 25.42597446 3.14505516 20.70263672 3.18945312 C19.51951904 3.18848633 19.51951904 3.18848633 18.3125 3.1875 C17.50828613 3.18814453 16.70407227 3.18878906 15.87548828 3.18945312 C10.32128778 3.13995245 5.34974493 2.58510961 0 1 C0 0.67 0 0.34 0 0 Z " fill="#223000" transform="translate(53,102)"/>
<path d="M0 0 C0.99 0.495 0.99 0.495 2 1 C2.37890625 3.6171875 2.37890625 3.6171875 2.5625 6.875 C2.75886324 10.20115284 2.94375608 12.83126825 4 16 C3.72428861 18.00875442 3.39764263 20.01178687 3 22 C2.01 21.67 1.02 21.34 0 21 C0 14.07 0 7.14 0 0 Z " fill="#0A1200" transform="translate(225,82)"/>
<path d="M0 0 C0 1.32 0 2.64 0 4 C-1.98 4 -3.96 4 -6 4 C-6 3.01 -6 2.02 -6 1 C-3 0 -3 0 0 0 Z " fill="#C9FB11" transform="translate(102,98)"/>
</svg>
